# xmcd
#
# Track frame offsets: 
#        150
#        11523
#        24349
#        47775
#        60320
#        72915
#        86158
#        103170
#        112607
#        130152
#        143469
#        156742
#
# Disc length: 2246 seconds
#
# Revision: 0
# Processed by: cddbd v1.5.2PL0 Copyright (c) Steve Scherf et al.
# Submitted via: ExactAudioCopy v0.95b1
#
DISCID=9708c40c
DTITLE=Country Blend - Loving You
DYEAR=2005
DGENRE=Country
TTITLE0=Silver Threads and Golden Needles
TTITLE1=Our House is a Home
TTITLE2=Working Man
TTITLE3=Just Lovin' You
TTITLE4=Beer Barrel Polka
TTITLE5=Amigo's Guitar
TTITLE6=Don't Let Me Cross Over
TTITLE7=Love on the Range
TTITLE8=Valley City
TTITLE9=Old Spinning Wheel in the Parlor - When You and I Were Young M
TTITLE9=aggie
TTITLE10=River Road
TTITLE11=If Teardrops Were Pennies
EXTD=
EXTT0=
EXTT1=
EXTT2=
EXTT3=
EXTT4=
EXTT5=
EXTT6=
EXTT7=
EXTT8=
EXTT9=
EXTT10=
EXTT11=
PLAYORDER=
